<svg width="36" height="36" viewBox="0 0 36 36" fill="none" xmlns="http://www.w3.org/2000/svg">
<path d="M31.41 16.5C31.0702 13.4582 29.7062 10.6223 27.542 8.45804C25.3777 6.29377 22.5418 4.92977 19.5 4.59V1.5H16.5V4.59C13.4582 4.92977 10.6223 6.29377 8.45804 8.45804C6.29377 10.6223 4.92977 13.4582 4.59 16.5H1.5V19.5H4.59C4.92977 22.5418 6.29377 25.3777 8.45804 27.542C10.6223 29.7062 13.4582 31.0702 16.5 31.41V34.5H19.5V31.41C22.5418 31.0702 25.3777 29.7062 27.542 27.542C29.7062 25.3777 31.0702 22.5418 31.41 19.5H34.5V16.5H31.41ZM18 28.5C12.195 28.5 7.5 23.805 7.5 18C7.5 12.195 12.195 7.5 18 7.5C23.805 7.5 28.5 12.195 28.5 18C28.5 23.805 23.805 28.5 18 28.5Z" fill="#212121"/>
<circle cx="18" cy="18" r="6.63158" fill="#212121"/>
</svg>
