<svg width="16" height="15" viewBox="0 0 16 15" fill="none" xmlns="http://www.w3.org/2000/svg">
<path d="M1.69635 14.15L15.5109 8.22832C15.6537 8.16748 15.7755 8.06601 15.8611 7.93651C15.9467 7.80701 15.9923 7.65521 15.9923 7.49998C15.9923 7.34476 15.9467 7.19296 15.8611 7.06346C15.7755 6.93396 15.6537 6.83249 15.5109 6.77165L1.69635 0.849984C1.57673 0.797809 1.446 0.776235 1.31596 0.787208C1.18592 0.79818 1.06065 0.841355 0.951466 0.912836C0.84228 0.984318 0.752607 1.08186 0.690537 1.19666C0.628468 1.31145 0.595954 1.4399 0.595929 1.5704L0.588013 5.21998C0.588013 5.61582 0.880929 5.95623 1.27676 6.00373L12.463 7.49998L1.27676 8.98832C0.880929 9.04374 0.588013 9.38415 0.588013 9.77999L0.595929 13.4296C0.595929 13.9917 1.17385 14.3796 1.69635 14.15Z" fill="#B1B1B1"/>
</svg>
