<svg width="36" height="36" viewBox="0 0 36 36" fill="none" xmlns="http://www.w3.org/2000/svg">
<path d="M16 6C14.0222 6 12.0888 6.58649 10.4443 7.6853C8.79981 8.78412 7.51809 10.3459 6.76121 12.1732C6.00433 14.0004 5.8063 16.0111 6.19215 17.9509C6.578 19.8907 7.53041 21.6725 8.92894 23.0711C10.3275 24.4696 12.1093 25.422 14.0491 25.8078C15.9889 26.1937 17.9996 25.9957 19.8268 25.2388C21.6541 24.4819 23.2159 23.2002 24.3147 21.5557C25.4135 19.9112 26 17.9778 26 16C25.9998 13.3479 24.9462 10.8044 23.0709 8.92912C21.1956 7.05379 18.6521 6.00017 16 6V6Z" stroke="#212121" stroke-width="1.5" stroke-miterlimit="10"/>
<path d="M24 23L30 30" stroke="#212121" stroke-width="1.5" stroke-miterlimit="10" stroke-linecap="round"/>
</svg>
