<svg width="36" height="36" viewBox="0 0 36 36" fill="none" xmlns="http://www.w3.org/2000/svg">
<path d="M18.15 27.3801L18 27.5272L17.835 27.3801C10.71 21.0384 6 16.845 6 12.5926C6 9.64986 8.25 7.44278 11.25 7.44278C13.56 7.44278 15.81 8.91417 16.605 10.9153H19.395C20.19 8.91417 22.44 7.44278 24.75 7.44278C27.75 7.44278 30 9.64986 30 12.5926C30 16.845 25.29 21.0384 18.15 27.3801ZM24.75 4.5C22.14 4.5 19.635 5.69183 18 7.56049C16.365 5.69183 13.86 4.5 11.25 4.5C6.63 4.5 3 8.04605 3 12.5926C3 18.1398 8.1 22.6864 15.825 29.5578L18 31.5L20.175 29.5578C27.9 22.6864 33 18.1398 33 12.5926C33 8.04605 29.37 4.5 24.75 4.5Z" fill="#212121"/>
</svg>
