<svg width="24" height="30" viewBox="0 0 24 30" fill="none" xmlns="http://www.w3.org/2000/svg">
<path d="M2.02052 29.02C2.01797 29.0188 2.01543 29.0176 2.01289 29.0164C1.75667 28.8946 1.52361 28.7148 1.33085 28.4856C1.13799 28.2564 0.990328 27.9834 0.90017 27.6836C0.889458 27.648 0.879596 27.6121 0.870589 27.576L1.18431 27.6129C1.25668 27.8198 1.36582 28.0132 1.50814 28.1823C1.6507 28.3517 1.8241 28.4936 2.02052 28.5987V29.02ZM22.495 28.1811C22.6368 28.0123 22.7456 27.8193 22.8178 27.6129L23.1294 27.5762C23.1204 27.6121 23.1106 27.6478 23.0999 27.6832C23.0099 27.983 22.8623 28.2559 22.6696 28.4851C22.477 28.7142 22.2441 28.894 21.988 29.016C21.9858 29.017 21.9836 29.0181 21.9814 29.0191V28.5988C22.1783 28.4934 22.3522 28.351 22.495 28.1811ZM20.3814 29.2H3.62052V28.8H20.3814V29.2ZM21.0479 11.3437C21.2371 11.5238 21.3935 11.7403 21.5094 11.9817L21.1789 12.0206C21.1005 11.8954 21.0064 11.7794 20.8975 11.6757C20.7839 11.5675 20.657 11.4756 20.5205 11.4024V10.9809C20.71 11.0701 20.8882 11.1917 21.0479 11.3437ZM5.0851 10.8H18.9187V11.2H5.0851V10.8ZM22.8272 25.9986L21.531 13.5922L21.6827 13.5743L21.8106 13.5593L23.1068 25.9657L22.8272 25.9986ZM22.6154 13.4625L22.6171 13.4623L22.5221 12.67L22.6154 13.4625ZM0.895042 25.9658L2.19129 13.559L2.31921 13.5743L2.31945 13.5723L2.4711 13.5902L1.17468 25.9987L0.895042 25.9658ZM3.10556 11.6743C2.99617 11.7783 2.90161 11.8948 2.82287 12.0205L2.49434 11.9818C2.61015 11.7406 2.76638 11.5242 2.95533 11.3442C3.11522 11.1919 3.29361 11.0702 3.48322 10.9809V11.4012C3.34651 11.4744 3.21941 11.5662 3.10556 11.6743ZM8.09451 2.91653C7.25006 3.81484 6.71569 4.9699 6.55329 6.2H6.26897C6.43422 4.83803 7.0177 3.56961 7.93088 2.59819C8.82627 1.64568 9.97671 1.04336 11.2009 0.859712V1.26159C10.025 1.44375 8.93388 2.02361 8.09451 2.91653ZM12.8009 0.859712C14.0252 1.04336 15.1756 1.64568 16.071 2.59819C16.9842 3.56961 17.5677 4.83803 17.7329 6.2H17.4486C17.2862 4.9699 16.7518 3.81484 15.9074 2.91653C15.068 2.02361 13.9769 1.44375 12.8009 1.26159V0.859712Z" fill="#212121" stroke="#212121" stroke-width="1.6"/>
</svg>
